<svg viewBox="0 0 24 24" fill="none" xmlns="http://www.w3.org/2000/svg">
  <circle cx="12" cy="12" r="12" fill="#1E293B" />
  <circle cx="12" cy="12" r="2.5" fill="#DC2626" />
  <path d="M12 5.5C12 5.5 14.5 7 14.5 10C14.5 10 13.5 8.5 12 8.5C10.5 8.5 9.5 10 9.5 10C9.5 7 12 5.5 12 5.5Z" fill="#EF4444" />
  <path d="M18.5 12C18.5 12 17 14.5 14 14.5C14 14.5 15.5 13.5 15.5 12C15.5 10.5 14 9.5 14 9.5C17 9.5 18.5 12 18.5 12Z" fill="#EF4444" />
  <path d="M12 18.5C12 18.5 9.5 17 9.5 14C9.5 14 10.5 15.5 12 15.5C13.5 15.5 14.5 14 14.5 14C14.5 17 12 18.5 12 18.5Z" fill="#EF4444" />
  <path d="M5.5 12C5.5 12 7 9.5 10 9.5C10 9.5 8.5 10.5 8.5 12C8.5 13.5 10 14.5 10 14.5C7 14.5 5.5 12 5.5 12Z" fill="#EF4444" />
</svg>
